<svg xmlns="http://www.w3.org/2000/svg" xmlns:xlink="http://www.w3.org/1999/xlink" x="0" y="0" enable-background="new 0 0 32 32" version="1.1" viewBox="0 0 32 32" xml:space="preserve"><g id="Layer_1"><g><path d="M28.8,6.9H3.2c-0.8,0-1.5-0.7-1.5-1.5s0.7-1.5,1.5-1.5h25.6c0.8,0,1.5,0.7,1.5,1.5S29.6,6.9,28.8,6.9z"/></g><g><path d="M28.8,17.5H3.2c-0.8,0-1.5-0.7-1.5-1.5s0.7-1.5,1.5-1.5h25.6c0.8,0,1.5,0.7,1.5,1.5S29.6,17.5,28.8,17.5z"/></g><g><path d="M28.8,28H3.2c-0.8,0-1.5-0.7-1.5-1.5S2.4,25,3.2,25h25.6c0.8,0,1.5,0.7,1.5,1.5S29.6,28,28.8,28z"/></g></g><g id="Layer_2"><path d="M29.7,25.4L18.3,16l11.3-9.5c0.6-0.5,0.7-1.5,0.2-2.1c-0.5-0.6-1.5-0.7-2.1-0.2L16,14L4.1,4.2C3.5,3.7,2.6,3.8,2,4.4 C1.5,5.1,1.6,6,2.2,6.5L13.6,16L2.3,25.5C1.7,26,1.6,27,2.1,27.6c0.3,0.4,0.7,0.5,1.1,0.5c0.3,0,0.7-0.1,1-0.4L16,17.9l11.8,9.8 c0.3,0.2,0.6,0.3,1,0.3c0.4,0,0.9-0.2,1.2-0.5C30.5,26.9,30.4,25.9,29.7,25.4z"/></g></svg>