<svg xmlns="http://www.w3.org/2000/svg" xmlns:xlink="http://www.w3.org/1999/xlink" id="Layer_1" x="0" y="0" enable-background="new 0 0 100 84.6" version="1.1" viewBox="0 0 100 84.6" xml:space="preserve"><style type="text/css">.st0{fill:none}.st1{fill:#010101}</style><g><g><polygon points="9.3 55.9 10.8 56.9 41.4 35.8 80 8.7 78.9 7.2 78.9 7.2" class="st0"/><path d="M78.9,7.1C78.9,7.1,78.9,7.1,78.9,7.1L78.9,7.1L78.9,7.1z" class="st0"/><polygon points="86.8 19.8 46.6 32.6 86.8 21" class="st0"/><path d="M78.9,7.2c2.1,2.2,10.2,11.2,9,19c-1.1,7.1-5.1,18.4-14.8,26.1c-7.9,6.4-18.7,11.7-31.8,12.6 c-13.1,0.9-27-3.8-32.8-8.9l-6.6,4.3C12.1,67.7,24,71.9,39.6,70.6c15.3-1.3,30.9-8.5,35.6-12c4.6-3.4,16.8-14.1,20.2-26.8 C97.7,23,94,8.4,87.8,1L78.9,7.2L78.9,7.2z" class="st0"/><polygon points="45.9 63.5 41.9 35.6 44.3 63.5" class="st0"/><polygon points="77.9 46.3 44.3 34.7 76.8 47.4" class="st0"/><g><path d="M41.3,64.9c13.1-0.9,23.9-6.2,31.8-12.6c9.6-7.7,13.6-19,14.8-26.1C89.2,18.4,80,8.7,80,8.7l-38.6,27 L10.3,57.3C16.8,61.9,29.4,65.7,41.3,64.9z M85.9,19.1l0.9,2.7L46.6,32.6L85.9,19.1z M78.5,45.7l-2,2.3L44.3,34.7L78.5,45.7z M47.2,63.5L43.3,64l-1.5-28.4L47.2,63.5z" class="st1"/><path d="M87.8,1C94,8.4,97.7,23,95.4,31.8C92,44.5,81.6,54.9,75.2,58.6c-4.8,3.5-20.4,10.6-35.6,12 C24,71.9,12.1,67.7,1.9,60.3l6.6-4.3L78.9,7.2c0,0,0,0-0.1-0.1l0.1,0.1L87.8,1l-9.2,5.9C56.9,22,3.3,59.4,0.9,60.8 c0,0,0,5.7,17.3,16.3c18.8,9.8,39.6,5.6,47.1,1.9c4.9-2.3,19.4-7,29.7-30.8C104.9,21.8,93.7,7.2,87.8,1z" class="st1"/><path d="M10.3,57.3C10.3,57.3,10.2,57.3,10.3,57.3L10.3,57.3L10.3,57.3z" class="st1"/></g></g></g></svg>