<svg xmlns="http://www.w3.org/2000/svg" xmlns:xlink="http://www.w3.org/1999/xlink" id="Layer_1" x="0" y="0" enable-background="new 0 0 971.6 800" version="1.1" viewBox="0 0 971.6 800" xml:space="preserve"><style type="text/css">.st0{fill:#ab4444}</style><path d="M956.9,76.5c-149.7-113-349.2-53.7-349.2-53.7C754.5-11,852.4,204.4,869.4,234.7c25.1,44.9,68.7,45.2,68.7,45.2	c-17-36.7,5.6-114.8,16-148.7C964.5,97.2,956.9,76.5,956.9,76.5z" class="st0"/><path d="M359.4,22.9c0,0-199.5-59.3-349.2,53.7c0,0-7.5,20.7,2.8,54.6C23.4,165,46,243.1,29,279.9	c0,0,41.9-0.3,68.7-45.2C115.6,204.9,212.6-11,359.4,22.9z" class="st0"/><path d="M480.9,727.3c-57.9,20.5-97.4,4.9-97.4,4.9s24.7,64.2,100.9,61.4s93.2-55.8,93.2-55.8	C534.6,747.7,480.9,727.3,480.9,727.3z" class="st0"/><g><polygon points="588 194 540.2 158.4 529.1 194" class="st0"/><polygon points="501.7 111.3 532.3 134.2 550.7 75.1" class="st0"/><path d="M489.3,102.1l71.2-52.5c-17.7-2.3-45.3-4.8-76.9-3.4c-25.9-1.1-49.2,0.3-66.5,2.2L489.3,102.1z" class="st0"/><polygon points="527.6 149.1 489.3 120.5 450.4 149.2 464.2 194 513.6 194" class="st0"/><polygon points="389.5 194 448.7 194 437.8 158.5" class="st0"/><polygon points="427.4 74.4 445.8 134.2 476.9 111.3" class="st0"/><polygon points="509 208.8 468.7 208.8 488.7 273.7" class="st0"/><path d="M825.8,194.9c0,0-77.8-185.2-227.5-162.6L581.4,53c0,0-2.8-0.6-7.8-1.4l-28.7,91.9l69.9,52l17.9,13.3H524.5 l-35.9,114.8l-35.3-114.8H344.6l88.6-65.3l-28.8-93.6c-11.8,1.6-18.6,3.1-18.6,3.1l-16.9-20.7C219.2,9.7,139.7,205.5,139.7,205.5 s36.2,65.9,69.1,91.3c0,0-34.8,186.4,92.3,292.7c0,0,18.8,76.2,42.4,97.9c23.2,21.4,63,51.9,140.1,20c77.1,31.9,116.9,1.4,140.1-20 c23.5-21.6,42.4-97.9,42.4-97.9c127.1-106.4,92.3-292.7,92.3-292.7C791.3,271.4,825.8,194.9,825.8,194.9z M263.4,393.9 c0-11.2,3.1-20.4,9.2-27.6c6.1-7.2,14.3-10.8,24.4-10.8c10.2,0,18.3,3.6,24.5,10.8c6.1,7.2,9.2,16.4,9.2,27.6v2.3 c0,11.3-3.1,20.5-9.2,27.6c-6.1,7.2-14.2,10.7-24.4,10.7c-10.2,0-18.4-3.6-24.5-10.7c-6.1-7.2-9.2-16.4-9.2-27.6V393.9z M271.8,396.2c0,8.8,2.2,16.2,6.7,22.2c4.5,6,10.7,9,18.6,9c7.8,0,14-3,18.4-9c4.5-6,6.7-13.4,6.7-22.2v-2.3c0-8.7-2.2-16-6.7-22.1 c-4.5-6-10.7-9.1-18.5-9.1c-7.9,0-14,3-18.5,9.1c-4.5,6-6.7,13.4-6.7,22.1V396.2z M343.2,363.8v-6.9h12.6v-11.1 c0-7.6,1.9-13.6,5.8-17.7c3.8-4.2,9.2-6.3,16.1-6.3c1.5,0,3,0.1,4.6,0.4c1.6,0.2,3.2,0.6,4.9,1l-1.1,7c-1.1-0.3-2.3-0.5-3.4-0.7 c-1.2-0.2-2.6-0.2-4.2-0.2c-4.6,0-8.1,1.5-10.6,4.4c-2.5,2.9-3.7,7-3.7,12.2v11.1h18.1v6.9h-18.1V426l11.5,0.9v6.2h-31.4v-6.2 l11.5-0.9v-62.1H343.2z M394.2,363.8v-6.9h12.6v-11.1c0-7.6,1.9-13.6,5.8-17.7c3.8-4.2,9.2-6.3,16.1-6.3c1.5,0,3,0.1,4.6,0.4 c1.6,0.2,3.2,0.6,4.9,1l-1.1,7c-1.1-0.3-2.3-0.5-3.4-0.7c-1.2-0.2-2.6-0.2-4.2-0.2c-4.6,0-8.1,1.5-10.6,4.4 c-2.5,2.9-3.7,7-3.7,12.2v11.1h18.1v6.9h-18.1V426l11.5,0.9v6.2h-31.4v-6.2l11.5-0.9v-62.1H394.2z M449.1,329.6v-6.3H469V426 l11.5,0.9v6.2h-31.3v-6.2l11.5-0.9v-95.5L449.1,329.6z M493.2,426.9l11.5-0.9v-61.8l-11.5-0.9v-6.3H513v69l11.5,0.9v6.2h-31.3 V426.9z M513,335.1h-8.4v-11.8h8.4V335.1z M537.1,426.9l11.5-0.9v-61.8l-11.5-0.9v-6.3H556l0.8,13.3c2.4-4.7,5.7-8.3,9.9-10.9 c4.2-2.6,9.1-3.8,14.7-3.8c8.3,0,14.5,2.5,18.9,7.6c4.3,5,6.5,12.9,6.5,23.6V426l11.5,0.9v6.2h-31.4v-6.2l11.5-0.9v-39.2 c0-8.7-1.6-14.9-4.9-18.5c-3.3-3.6-7.9-5.4-13.9-5.4c-5.9,0-10.7,1.6-14.5,4.7c-3.7,3.1-6.4,7.3-8.1,12.4v46l11.5,0.9v6.2h-31.4 V426.9z M664.2,434.5c-9.6,0-17.5-3.5-23.8-10.5c-6.3-7-9.4-15.9-9.4-26.8v-3.9c0-10.9,3.1-19.9,9.4-27.1 c6.3-7.2,13.8-10.8,22.7-10.8c9.3,0,16.7,3,22,8.9c5.3,5.9,8,13.8,8,23.6v7.2h-53.7v2c0,8.5,2.3,15.7,6.9,21.5 c4.6,5.8,10.6,8.7,18,8.7c5.2,0,9.7-0.7,13.4-2.2c3.7-1.5,6.9-3.5,9.5-6.3l3.6,5.8c-2.9,3-6.5,5.4-10.8,7.1 C675.5,433.7,670.3,434.5,664.2,434.5z M663.1,362.7c-6.2,0-11.4,2.4-15.7,7.1c-4.2,4.8-6.7,10.7-7.4,17.9l0.1,0.4h44.6V386 c0-6.6-1.9-12.1-5.8-16.6C675,364.9,669.8,362.7,663.1,362.7z M572.8,575.7c-1.4,9.9-19.1,21.9-24.7,22.6c0,0-4.2-27.5-23.3-19.1 c-19.1,8.5-22.6,43.1-5.6,47.3c16.9,4.2-7.1,27.5-16.2,33.2c-9.2,5.7-14.8,22.6-14.8,31.1h-0.2c0-8.5-5.6-25.4-14.8-31.1 c-9.2-5.6-33.2-29-16.2-33.2c16.9-4.2,13.4-38.8-5.7-47.3c-19.1-8.5-23.3,19.1-23.3,19.1c-5.7-0.7-23.3-12.7-24.7-22.6 c-1.4-9.9-7.1-41.6,27.5-62.1c34.6-20.5,57.2-5,57.2-5h0.2c0,0,22.6-15.5,57.2,5C579.9,534,574.2,565.8,572.8,575.7z" class="st0"/></g></svg>