<svg xmlns="http://www.w3.org/2000/svg" xmlns:xlink="http://www.w3.org/1999/xlink" width="100%" height="100%" version="1.1" viewBox="0 0 600 600" xml:space="preserve" style="fill-rule:evenodd;clip-rule:evenodd;stroke-linejoin:round;stroke-miterlimit:2"><g id="Layer-4"><g><path d="M0,-25.279C-41.867,-56.88 -97.689,-40.29 -97.689,-40.29C-56.614,-49.769 -29.233,10.484 -24.485,18.962C-17.457,31.511 -5.259,31.601 -5.259,31.601C-10.002,21.33 -3.682,-0.525 -0.786,-10.005C2.11,-19.487 0,-25.279 0,-25.279" style="fill:#ab4444;fill-rule:nonzero" transform="matrix(2.17666,0,0,2.17666,-28.7866,-39.8803) matrix(1,0,0,1,283.787,93.6421)"/></g><g><path d="M0,-55.3C0,-55.3 -55.825,-71.891 -97.692,-40.289C-97.692,-40.289 -99.802,-34.497 -96.903,-25.015C-94.007,-15.535 -87.688,6.32 -92.43,16.591C-92.43,16.591 -80.702,16.5 -73.204,3.951C-68.217,-4.39 -41.081,-64.78 0,-55.3" style="fill:#ab4444;fill-rule:nonzero" transform="matrix(2.17666,0,0,2.17666,-28.7866,-39.8803) matrix(1,0,0,1,116.631,108.652)"/></g><g><path d="M-0.706,-19.337C15.769,-14.48 26.58,-19.404 26.58,-19.404C26.58,-19.404 20.636,-1.09 -0.706,-0.746C-22.049,-0.402 -27.569,-14.94 -27.569,-14.94C-15.392,-12.822 -0.706,-19.337 -0.706,-19.337" style="fill:#ab4444;fill-rule:nonzero" transform="matrix(2.17666,0,0,2.17666,-28.7866,-39.8803) matrix(-0.998587,0.0531432,0.0531432,0.998587,150.945,269.757)"/></g><g><path d="M0,9.959L-13.382,0L-16.489,9.959L0,9.959Z" style="fill:#ab4444;fill-rule:nonzero" transform="matrix(2.17666,0,0,2.17666,-28.7866,-39.8803) matrix(1,0,0,1,180.585,91.2713)"/></g><g><path d="M0,3.736L8.559,10.124L13.719,-6.388L0,3.736Z" style="fill:#ab4444;fill-rule:nonzero" transform="matrix(2.17666,0,0,2.17666,-28.7866,-39.8803) matrix(1,0,0,1,156.434,74.3579)"/></g><g><path d="M0,-18.022C-10.537,-16.178 -21.33,-19.866 -28.439,-24.867C-28.439,-24.867 -15.802,-40.141 -5.006,-41.193C5.792,-42.249 11.06,-35.404 13.431,-31.711C13.431,-31.714 10.529,-19.866 0,-18.022M-25.004,47.256C-25.401,50.022 -30.338,53.379 -31.918,53.579C-31.918,53.579 -33.101,45.873 -38.435,48.245C-43.767,50.616 -44.755,60.29 -40.015,61.475C-35.275,62.661 -41.989,69.181 -44.558,70.758C-47.124,72.341 -48.706,77.078 -48.706,79.449L-48.762,79.449C-48.762,77.078 -50.342,72.341 -52.91,70.758C-55.476,69.178 -62.193,62.658 -57.45,61.475C-52.711,60.293 -53.699,50.616 -59.033,48.245C-64.364,45.873 -65.547,53.579 -65.547,53.579C-67.13,53.379 -72.064,50.022 -72.461,47.256C-72.855,44.491 -74.435,35.605 -64.759,29.879C-55.079,24.154 -48.762,28.494 -48.762,28.494L-48.706,28.494C-48.706,28.494 -42.384,24.151 -32.71,29.879C-23.036,35.608 -24.61,44.491 -25.004,47.256M-99.208,-18.76C-109.743,-20.604 -112.639,-32.455 -112.639,-32.455C-110.27,-36.142 -105.006,-42.987 -94.21,-41.934C-83.411,-40.882 -70.772,-25.605 -70.772,-25.605C-77.878,-20.604 -88.676,-16.916 -99.208,-18.76M45.767,-59.255C45.767,-59.255 23.995,-111.07 -17.877,-104.75L-22.615,-98.958C-22.615,-98.958 -23.391,-99.124 -24.797,-99.36L-32.836,-73.644L-13.287,-59.099L-8.292,-55.37L-38.531,-55.37L-48.569,-23.258L-58.449,-55.37L-88.846,-55.37L-64.066,-73.644L-72.12,-99.819C-75.407,-99.369 -77.329,-98.958 -77.329,-98.958L-82.069,-104.751C-123.938,-111.07 -146.172,-56.295 -146.172,-56.295C-146.172,-56.295 -136.053,-37.863 -126.84,-30.755C-126.84,-30.755 -136.578,21.386 -101.028,51.141C-101.028,51.141 -95.76,72.471 -89.177,78.527C-82.681,84.506 -71.547,93.045 -49.972,84.13C-28.396,93.048 -17.267,84.508 -10.769,78.527C-4.186,72.471 1.084,51.141 1.084,51.141C36.632,21.386 26.893,-30.755 26.893,-30.755C36.109,-37.866 45.767,-59.255 45.767,-59.255" style="fill:#ab4444;fill-rule:nonzero" transform="matrix(2.17666,0,0,2.17666,-28.7866,-39.8803) matrix(1,0,0,1,201.337,160.738)"/></g><g><path d="M-4.778,1.48L19.963,1.48C16.356,4.948 10.557,10.073 3.214,15.019C-2.445,19.574 -7.915,23.101 -12.115,25.556L-4.778,1.48Z" style="fill:#ab4444;fill-rule:nonzero" transform="matrix(2.17666,0,0,2.17666,-28.7866,-39.8803) matrix(0.804958,-0.593331,-0.593331,-0.804958,157.691,73.8709)"/></g><g><path d="M0,-4.594L-10.738,-12.579L-21.618,-4.563L-17.755,7.985L-3.925,7.985L0,-4.594Z" style="fill:#ab4444;fill-rule:nonzero" transform="matrix(2.17666,0,0,2.17666,-28.7866,-39.8803) matrix(1,0,0,1,163.695,93.2457)"/></g><g><path d="M0,9.951L16.567,9.951L13.507,0L0,9.951Z" style="fill:#ab4444;fill-rule:nonzero" transform="matrix(2.17666,0,0,2.17666,-28.7866,-39.8803) matrix(1,0,0,1,125.054,91.2793)"/></g><g><path d="M0,-16.725L5.137,0L13.846,-6.411L0,-16.725Z" style="fill:#ab4444;fill-rule:nonzero" transform="matrix(2.17666,0,0,2.17666,-28.7866,-39.8803) matrix(1,0,0,1,135.65,84.4984)"/></g><g><path d="M0,-18.165L-11.258,-18.165L-5.673,0L0,-18.165Z" style="fill:#ab4444;fill-rule:nonzero" transform="matrix(2.17666,0,0,2.17666,-28.7866,-39.8803) matrix(1,0,0,1,158.472,123.532)"/></g></g></svg>