<?xml version="1.0" standalone="no"?>
<!DOCTYPE svg PUBLIC "-//W3C//DTD SVG 20010904//EN"
 "http://www.w3.org/TR/2001/REC-SVG-20010904/DTD/svg10.dtd">
<svg version="1.0" xmlns="http://www.w3.org/2000/svg"
 width="700.000000pt" height="700.000000pt" viewBox="0 0 700.000000 700.000000"
 preserveAspectRatio="xMidYMid meet">
<metadata>
Created by potrace 1.11, written by Peter Selinger 2001-2013
</metadata>
<g transform="translate(0.000000,700.000000) scale(0.100000,-0.100000)"
fill="#000000" stroke="none">
<path d="M1697 6154 c-1 -1 -69 -4 -152 -8 -82 -3 -159 -7 -170 -10 -11 -2
-45 -7 -75 -11 -73 -9 -110 -14 -140 -20 -14 -3 -34 -7 -45 -9 -256 -52 -447
-116 -661 -221 -139 -69 -373 -217 -375 -238 0 -7 -3 -21 -5 -32 -8 -34 -8
-157 -1 -210 7 -48 22 -107 67 -265 21 -76 58 -219 66 -255 28 -138 37 -189
47 -282 19 -163 13 -297 -18 -385 -15 -45 -11 -46 78 -23 196 51 333 169 452
390 282 525 454 775 715 1035 176 177 272 249 451 339 168 85 305 117 492 114
102 -1 116 2 57 12 -19 3 -51 10 -70 15 -19 5 -57 12 -85 15 -27 4 -59 9 -70
10 -11 2 -47 6 -80 10 -33 4 -69 9 -80 11 -10 2 -82 6 -160 10 -215 10 -235
10 -238 8z"/>
<path d="M5228 6155 c-2 -1 -59 -5 -128 -9 -69 -3 -136 -8 -150 -10 -14 -3
-52 -7 -85 -11 -84 -8 -295 -47 -295 -54 0 -3 55 -7 123 -8 94 -1 144 -7 220
-27 231 -60 467 -208 684 -430 260 -266 456 -553 719 -1050 84 -159 175 -256
304 -321 51 -26 138 -53 188 -59 30 -3 33 -1 27 18 -59 200 -26 540 90 931 60
199 67 237 69 360 0 66 -2 131 -6 145 -14 50 -302 224 -523 315 -141 59 -269
98 -460 142 -43 9 -173 32 -224 38 -30 4 -62 8 -72 10 -53 10 -472 27 -481 20z"/>
<path d="M4538 6063 c7 -3 16 -2 19 1 4 3 -2 6 -13 5 -11 0 -14 -3 -6 -6z"/>
<path d="M2445 5982 c-168 -12 -381 -82 -539 -177 -91 -55 -240 -178 -340
-279 -107 -110 -261 -309 -348 -452 -61 -98 -188 -345 -188 -363 0 -12 145
-246 208 -334 66 -94 156 -201 225 -268 60 -58 67 -69 63 -95 -21 -113 -29
-542 -13 -689 22 -204 91 -505 141 -618 7 -18 24 -59 37 -92 44 -114 123 -256
213 -380 71 -98 97 -127 207 -235 72 -71 98 -104 104 -130 4 -19 31 -107 60
-195 86 -261 160 -403 255 -492 248 -231 542 -285 900 -167 l104 35 89 -31
c48 -18 100 -34 115 -37 180 -35 321 -38 432 -9 138 37 338 163 420 265 80
102 177 335 262 630 8 30 26 57 52 80 299 268 489 608 596 1061 10 41 22 100
26 130 4 30 8 57 9 60 24 98 39 492 24 625 -4 33 -10 97 -14 143 l-6 82 31 27
c56 46 168 193 248 325 78 128 202 365 202 386 0 30 -155 309 -229 412 -120
168 -180 239 -296 354 -218 216 -486 369 -720 411 -149 26 -391 26 -414 -2 -5
-4 -32 -37 -61 -73 -44 -54 -58 -65 -84 -65 -26 0 -31 -5 -42 -40 -6 -22 -38
-121 -69 -220 -31 -99 -70 -223 -86 -275 -16 -52 -32 -103 -35 -112 -4 -13 43
-52 193 -164 287 -213 423 -316 427 -323 2 -3 -171 -6 -385 -6 l-389 1 -19
-61 c-11 -33 -68 -213 -126 -400 -58 -187 -108 -347 -111 -355 -6 -14 -31 62
-114 330 -57 190 -112 366 -131 425 l-19 61 -390 -1 c-215 0 -390 2 -390 5 0
3 144 110 319 238 l318 234 -44 141 c-25 78 -63 201 -84 272 -22 72 -50 161
-61 198 l-21 68 -36 -5 c-20 -3 -50 -8 -67 -11 -28 -6 -35 -2 -75 47 -82 99
-83 100 -135 104 -81 7 -157 9 -199 6z m51 -1675 c120 -48 263 -154 412 -306
l84 -85 -24 -18 c-63 -49 -270 -137 -361 -154 -141 -26 -309 -26 -399 0 -127
37 -257 175 -299 319 -7 25 -2 37 32 82 103 136 231 196 404 190 67 -2 106 -9
151 -28z m2374 2 c8 -1 48 -17 89 -35 55 -26 90 -51 142 -104 38 -38 71 -81
75 -94 9 -36 -54 -159 -117 -230 -99 -110 -189 -142 -394 -140 -159 2 -297 37
-449 115 -83 42 -116 63 -116 74 0 13 173 183 245 241 62 50 168 118 221 140
87 37 165 46 304 33z m-1340 -1793 c24 -10 40 -11 53 -4 10 5 80 8 160 6 135
-3 145 -5 201 -33 33 -16 85 -54 117 -83 102 -94 140 -201 124 -351 -6 -56
-12 -69 -47 -107 -34 -37 -114 -94 -132 -94 -3 0 -6 5 -6 11 0 19 -38 94 -57
111 -41 37 -106 29 -160 -19 -61 -54 -91 -188 -55 -253 10 -19 36 -44 58 -56
45 -23 53 -48 29 -94 -19 -36 -91 -111 -148 -154 -39 -30 -97 -135 -97 -177 0
-19 -14 -20 -15 -1 -2 20 -31 92 -50 122 -12 20 -44 53 -71 75 -94 75 -152
155 -139 194 3 10 19 24 36 31 16 7 41 26 54 42 54 63 20 223 -59 283 -76 58
-142 38 -183 -53 -14 -31 -27 -58 -29 -60 -5 -7 -65 29 -98 59 -59 51 -77 89
-80 171 -5 164 55 282 188 369 66 44 143 75 207 84 24 4 45 8 47 9 6 6 121
-15 152 -28z"/>
<path d="M3267 5873 c-1 -1 -49 -4 -107 -8 -58 -4 -106 -8 -107 -9 -4 -4 507
-381 519 -384 7 -1 24 6 38 17 28 22 310 231 412 306 37 27 67 50 65 51 -1 1
-36 5 -77 8 -41 4 -97 9 -123 13 -44 5 -616 11 -620 6z"/>
<path d="M3130 5649 c0 -6 21 -77 46 -157 25 -81 53 -171 62 -200 11 -39 19
-51 30 -47 8 3 59 38 114 77 93 68 98 73 81 88 -46 42 -333 249 -333 239z"/>
<path d="M3838 5527 c-92 -67 -166 -126 -164 -131 4 -17 211 -163 215 -152 23
60 127 406 122 406 -3 0 -81 -55 -173 -123z"/>
<path d="M3508 5282 c-112 -81 -119 -86 -170 -125 -36 -28 -48 -43 -43 -55 3
-9 25 -78 47 -152 22 -74 46 -140 53 -145 8 -6 77 -10 176 -9 196 2 186 1 186
17 1 6 22 79 48 160 26 82 46 149 44 151 -2 2 -60 45 -129 96 -69 51 -130 96
-136 101 -6 5 -36 -10 -76 -39z"/>
<path d="M3029 4929 c-90 -66 -165 -123 -167 -127 -1 -4 92 -7 208 -7 182 0
209 2 205 15 -47 151 -76 240 -79 240 -1 0 -76 -54 -167 -121z"/>
<path d="M3940 5046 c0 -2 -16 -55 -35 -117 -19 -63 -35 -119 -35 -124 0 -7
75 -10 210 -10 154 0 206 3 197 11 -22 20 -327 244 -332 244 -3 0 -5 -2 -5 -4z"/>
<path d="M3430 4679 c0 -12 42 -153 84 -281 19 -59 37 -121 41 -138 4 -16 10
-30 14 -30 7 0 141 426 141 448 0 9 -37 12 -140 11 -77 -1 -140 -5 -140 -10z"/>
<path d="M3435 889 c-32 -11 -71 -22 -85 -24 -14 -3 -34 -7 -45 -9 -155 -30
-336 -27 -469 9 -26 7 -28 6 -22 -11 30 -80 191 -269 262 -307 96 -52 159 -77
239 -97 78 -19 107 -22 225 -17 237 9 404 72 536 202 62 60 134 162 134 188 0
5 -24 5 -52 1 -161 -23 -375 1 -587 66 -35 11 -66 20 -70 19 -3 -1 -33 -10
-66 -20z"/>
</g>
</svg>
