<?xml version="1.0" standalone="no"?>
<!DOCTYPE svg PUBLIC "-//W3C//DTD SVG 20010904//EN"
 "http://www.w3.org/TR/2001/REC-SVG-20010904/DTD/svg10.dtd">
<svg version="1.0" xmlns="http://www.w3.org/2000/svg"
 width="700.000000pt" height="700.000000pt" viewBox="0 0 700.000000 700.000000"
 preserveAspectRatio="xMidYMid meet">
<metadata>
Created by potrace 1.14, written by Peter Selinger 2001-2017
</metadata>
<g transform="translate(0.000000,700.000000) scale(0.100000,-0.100000)"
fill="#000000" stroke="none">
<path d="M1540 6217 c-3 -2 -45 -7 -95 -11 -78 -6 -158 -16 -230 -30 -11 -2
-38 -7 -60 -11 -22 -4 -51 -9 -65 -12 -35 -6 -164 -41 -235 -63 -204 -63 -412
-161 -592 -279 -117 -77 -121 -82 -128 -122 -18 -108 -5 -234 40 -381 21 -65
59 -208 70 -258 2 -8 12 -53 23 -100 60 -257 69 -511 22 -634 -6 -16 -9 -30
-8 -31 2 -1 32 4 68 11 100 21 216 83 291 156 75 73 108 119 174 243 26 50 51
95 55 100 4 6 24 42 45 80 289 533 655 948 997 1130 179 95 315 128 518 128
100 0 105 7 13 21 -21 3 -51 8 -68 11 -16 3 -43 7 -60 10 -16 3 -39 7 -50 9
-11 2 -51 7 -88 11 -37 3 -78 9 -90 11 -28 7 -541 17 -547 11z"/>
<path d="M5049 6216 c-2 -2 -44 -6 -94 -10 -115 -8 -154 -13 -321 -42 -147
-24 -160 -32 -56 -30 422 9 812 -234 1197 -747 57 -75 136 -190 176 -255 40
-64 82 -133 94 -152 20 -31 83 -146 190 -345 104 -195 273 -322 454 -342 52
-5 53 -5 41 16 -39 75 -46 271 -14 477 13 87 46 236 80 359 85 306 92 344 90
450 -1 59 -7 110 -15 123 -24 44 -257 187 -446 272 -144 66 -417 152 -557 175
-18 3 -58 10 -88 15 -30 6 -77 12 -105 15 -27 4 -61 8 -75 11 -29 7 -544 16
-551 10z"/>
<path d="M2448 6055 c-2 -1 -30 -5 -63 -9 -374 -39 -758 -319 -1067 -776 -129
-191 -253 -428 -244 -465 12 -48 241 -390 325 -485 47 -53 89 -96 121 -124
l32 -28 -7 -77 c-4 -42 -10 -92 -12 -111 -6 -58 -5 -401 1 -465 35 -342 95
-573 214 -825 93 -197 241 -402 385 -535 l76 -70 35 -115 c95 -314 179 -492
277 -587 112 -109 275 -197 412 -222 59 -11 244 -9 307 3 60 12 153 39 210 61
l56 22 75 -27 c156 -55 215 -65 379 -64 117 1 145 5 211 27 135 46 294 153
371 251 58 73 130 229 191 417 30 90 58 179 62 197 4 21 24 49 53 75 179 164
308 337 417 558 70 142 152 392 170 515 3 21 8 45 11 53 5 15 18 108 31 216
17 144 9 560 -13 667 -5 23 3 36 50 83 110 109 246 314 368 557 l59 117 -47
93 c-26 51 -74 135 -106 187 -32 51 -58 95 -58 97 0 7 -157 212 -197 256 -182
205 -380 354 -583 441 -169 71 -285 93 -488 91 -131 -2 -138 -5 -208 -94 -42
-54 -52 -61 -78 -58 -29 3 -30 2 -58 -87 -16 -49 -30 -97 -32 -105 -4 -15 -11
-38 -95 -303 -23 -71 -41 -136 -41 -145 0 -10 40 -45 92 -82 50 -36 96 -70
102 -75 6 -6 27 -22 46 -35 19 -13 40 -29 47 -35 6 -5 81 -62 167 -125 l156
-115 -381 -5 -382 -5 -34 -110 c-19 -60 -59 -186 -88 -280 -29 -93 -71 -226
-92 -295 l-39 -125 -28 90 c-16 50 -37 119 -48 155 -11 36 -23 76 -28 90 -5
14 -23 72 -40 130 -18 58 -48 159 -69 225 l-37 120 -383 5 -383 5 311 229
c172 127 310 235 308 240 -2 6 -48 156 -102 332 l-99 322 -40 -6 c-92 -14 -95
-12 -156 62 -31 38 -65 71 -76 73 -24 4 -223 11 -226 8z m3 -1621 c129 -38
270 -136 431 -297 l99 -99 -33 -25 c-43 -32 -156 -86 -238 -113 -136 -46 -328
-63 -449 -40 -129 24 -234 109 -302 244 -21 43 -39 86 -39 95 0 39 124 166
198 202 100 49 233 62 333 33z m2365 -15 c103 -25 223 -111 283 -203 17 -26
18 -32 5 -69 -40 -113 -134 -225 -227 -271 -75 -36 -134 -46 -272 -42 -119 3
-182 14 -312 58 -74 24 -228 109 -228 125 0 26 207 222 306 290 159 110 304
146 445 112z m-1314 -1742 c34 -14 41 -14 87 3 68 27 185 21 267 -12 202 -82
306 -232 291 -424 -6 -81 -20 -110 -70 -153 -85 -73 -109 -77 -125 -22 -25 81
-81 116 -145 90 -45 -18 -73 -48 -98 -104 -44 -99 -20 -209 49 -229 79 -22 39
-120 -90 -222 -60 -47 -101 -106 -113 -161 -8 -38 -25 -54 -25 -23 0 37 -53
132 -89 159 -65 48 -147 140 -158 175 -12 39 -1 56 49 75 64 24 81 139 35 234
-33 67 -78 102 -133 102 -52 0 -71 -16 -104 -88 l-26 -57 -44 28 c-108 70
-131 113 -127 244 3 76 8 104 30 151 48 105 175 205 308 242 65 18 178 14 231
-8z"/>
<path d="M3208 5945 c-3 -2 -135 -14 -162 -15 -5 0 4 -10 20 -22 16 -13 34
-26 39 -31 57 -45 442 -327 447 -327 4 0 13 6 20 13 7 7 117 89 245 182 127
94 230 171 228 173 -4 4 -42 10 -120 18 -62 6 -711 14 -717 9z"/>
<path d="M3114 5722 c5 -8 78 -243 90 -287 12 -44 29 -101 32 -107 6 -10 214
143 213 156 0 6 -71 63 -156 126 -144 106 -195 138 -179 112z"/>
<path d="M3919 5692 c-25 -20 -95 -73 -155 -116 -60 -44 -113 -82 -118 -87 -4
-4 41 -44 100 -89 60 -44 110 -78 111 -73 1 4 29 95 63 202 33 106 60 195 60
197 0 10 -19 0 -61 -34z"/>
<path d="M3403 5310 l-131 -99 23 -73 c13 -40 35 -111 49 -158 l26 -85 175 0
176 -1 50 159 c28 88 47 163 42 167 -38 34 -256 190 -266 190 -7 -1 -71 -45
-144 -100z"/>
<path d="M3013 5023 c-89 -65 -162 -120 -162 -123 -1 -3 90 -5 202 -5 123 0
202 4 201 10 -3 25 -69 235 -74 235 -3 0 -79 -53 -167 -117z"/>
<path d="M3905 5128 c-23 -62 -71 -224 -68 -228 6 -7 403 -7 403 0 -1 5 -306
233 -321 238 -5 2 -11 -2 -14 -10z"/>
<path d="M3437 4678 c19 -62 47 -154 64 -205 16 -50 29 -99 29 -107 0 -30 19
-26 29 6 5 18 32 107 61 198 28 91 56 177 60 193 l9 27 -144 0 -143 0 35 -112z"/>
<path d="M3477 1103 c-6 -6 -93 -29 -182 -49 -136 -31 -389 -25 -478 11 -24
10 -15 -13 39 -95 161 -248 416 -363 731 -329 203 22 335 81 458 204 70 69
125 147 125 176 0 4 -19 5 -42 2 -80 -13 -283 -7 -373 11 -42 8 -182 45 -227
59 -26 8 -49 13 -51 10z"/>
</g>
</svg>
